PathFileType	4	(X/Y/Z)	./resultDataOpenSim/trcMotMarkerGrf/sub10/qtm-02-07.trc
DataRate	CameraRate	NumFrames	NumMarkers	Units	OrigDataRate	OrigDataStartFrame	OrigNumFrames
250.000000	250.000000	8	24	m	250.000000	322	514
Frame#	Time	L.Toe.Tip			R.Toe.Tip			L.Ankle.Lat			R.Ankle.Lat			L.Ankle.Med			R.Ankle.Med			L.Heel			R.Heel			L.Knee.Lat			R.Knee.Lat			L.Knee.Med			R.Knee.Med			L.Thigh.Upper			R.Thigh.Upper			L.ASIS			R.ASIS			V.Sacral			L.Acromium			R.Acromium			C7			L.Elbow			R.Elbow			L.Wrist.Lat			R.Wrist.Lat
		X1	Y1	Z1	X2	Y2	Z2	X3	Y3	Z3	X4	Y4	Z4	X5	Y5	Z5	X6	Y6	Z6	X7	Y7	Z7	X8	Y8	Z8	X9	Y9	Z9	X10	Y10	Z10	X11	Y11	Z11	X12	Y12	Z12	X13	Y13	Z13	X14	Y14	Z14	X15	Y15	Z15	X16	Y16	Z16	X17	Y17	Z17	X18	Y18	Z18	X19	Y19	Z19	X20	Y20	Z20	X21	Y21	Z21	X22	Y22	Z22	X23	Y23	Z23	X24	Y24	Z24

322	1.284	0.050000877	0.022006847	-0.088404249	0.79815679	0.03873878	0.055189231	0.013272505	0.1492219	-0.12530646	0.65717877	0.053777573	0.10331035	0.043533106	0.15149628	-0.046122632	0.67087708	0.079724899	0.017517209	-0.039296673	0.18637089	-0.076542934	0.60435328	0.029999529	0.061301587	0.29771205	0.40926101	-0.15291813	0.64748419	0.45257123	0.12308556	0.31284758	0.37215209	-0.035225045	0.64229646	0.45984252	-0.0055462503	0.40473873	0.77571404	-0.19236516	0.50358165	0.84266602	0.18157928	0.48526886	0.88305011	-0.14526018	0.54204745	0.92673495	0.086583396	0.31800487	0.91336181	0.015990826	0.40791017	1.3787441	-0.17264996	0.39727804	1.3685976	0.15005315	0.31985815	1.3934747	-0.018395724	0.37884604	1.0349978	-0.20540207	0.27930718	1.0465962	0.17668994	0.637923	0.92498107	-0.20206295	0.30780958	0.83940033	0.30059334
323	1.288	0.052828822	0.02348061	-0.088587844	0.79814017	0.038707384	0.055097634	0.021223299	0.15236296	-0.12567486	0.65731168	0.053688397	0.10332177	0.051763808	0.15361601	-0.046478524	0.67088072	0.07968291	0.017521036	-0.029803871	0.19154495	-0.076670843	0.60431767	0.029956337	0.061431845	0.30540389	0.40838071	-0.15281224	0.65107363	0.45280557	0.12303911	0.3249658	0.3700995	-0.035511539	0.6454384	0.46007982	-0.0056252582	0.41179962	0.77528873	-0.19141214	0.51011822	0.84454279	0.18216647	0.49201415	0.88349261	-0.14395868	0.54816736	0.92815114	0.08722844	0.32420736	0.91428735	0.016794883	0.41382992	1.3795651	-0.17203325	0.40303123	1.36939	0.15063778	0.32566103	1.3942874	-0.01787994	0.38482524	1.0361003	-0.20521266	0.2860895	1.0471084	0.17725625	0.6416535	0.92437899	-0.2017297	0.31461955	0.83989544	0.30096985
324	1.292	0.055891273	0.025120243	-0.088719612	0.79809533	0.03868109	0.055011893	0.029480728	0.1556116	-0.12601758	0.65730287	0.053647452	0.10334649	0.060220391	0.15580348	-0.046750399	0.67077629	0.079663246	0.01755812	-0.019825294	0.19677262	-0.076732631	0.60426151	0.02991119	0.061566593	0.31363227	0.40741632	-0.15262373	0.65443004	0.45305765	0.12301119	0.337341	0.36808953	-0.035690437	0.64825059	0.46023618	-0.0056749973	0.41876982	0.77487052	-0.1904611	0.51659545	0.8464086	0.182732	0.49841861	0.88390238	-0.14290148	0.5542066	0.92958045	0.087822738	0.33052548	0.91530602	0.017520245	0.41971962	1.3803927	-0.17143717	0.40878852	1.3702013	0.15121586	0.33147651	1.3951648	-0.017489036	0.39124169	1.0370518	-0.20532278	0.29287001	1.0476219	0.17780546	0.6453191	0.92373108	-0.20142251	0.32155842	0.84041275	0.30136676
325	1.296	0.05923067	0.026879668	-0.088829068	0.79803716	0.038655578	0.054942097	0.038049711	0.15893089	-0.12633719	0.65720436	0.053642764	0.10339029	0.06888655	0.15809734	-0.046950705	0.67062335	0.079666312	0.017626763	-0.0093397444	0.20199217	-0.076822504	0.60419905	0.029864335	0.061704654	0.32341714	0.40633028	-0.15252052	0.65759958	0.45333259	0.12303533	0.34979084	0.36614996	-0.035816084	0.65076083	0.46031701	-0.0056683894	0.42565206	0.77447301	-0.1895301	0.52300465	0.84824219	0.18328282	0.50453456	0.88431651	-0.14204984	0.56015522	0.93102804	0.088361015	0.33798489	0.91610335	0.017748485	0.42558862	1.3812308	-0.17085249	0.41455202	1.3710375	0.15178848	0.33728498	1.3960422	-0.017181042	0.39863888	1.0376247	-0.20618799	0.29969267	1.0481397	0.17830054	0.64891616	0.92304336	-0.20114331	0.32862006	0.84095565	0.30178308
326	1.3	0.062912858	0.028755854	-0.088942746	0.79797463	0.038633566	0.054891082	0.046916167	0.16227085	-0.12664848	0.65708926	0.053646332	0.10345561	0.077742569	0.16052958	-0.04708455	0.67047011	0.079691887	0.017726863	0.0015873941	0.20710978	-0.077013281	0.60413688	0.029817238	0.061847012	0.33540477	0.40516554	-0.15234163	0.66062687	0.45363287	0.12314004	0.36212833	0.36435803	-0.035959234	0.65296648	0.46033566	-0.0055623006	0.4324448	0.77411683	-0.18864245	0.52934334	0.85002511	0.18383339	0.51043834	0.88477978	-0.1413471	0.56602718	0.93247341	0.088851575	0.34762893	0.91624925	0.016934871	0.4314366	1.3820918	-0.17027641	0.42031423	1.3719085	0.15234919	0.34305224	1.3968857	-0.016869678	0.40737203	1.0376514	-0.2081028	0.30655885	1.0486775	0.17874469	0.65243849	0.92232471	-0.20089676	0.3357891	0.84152529	0.30220921
327	1.304	0.06703821	0.030793894	-0.08907261	0.79791421	0.038617683	0.054859702	0.056065376	0.16557807	-0.12694327	0.65700332	0.053636646	0.10354216	0.08677767	0.16310026	-0.047155424	0.67033009	0.079738315	0.017864559	0.012792915	0.21202032	-0.077284927	0.60407653	0.029773279	0.061992899	0.34942238	0.40408856	-0.15196547	0.66353659	0.4539525	0.1233366	0.37428398	0.36284096	-0.036158423	0.65485655	0.46030704	-0.0053134134	0.43914482	0.77382721	-0.1878084	0.53558158	0.85174568	0.18437613	0.51617922	0.88532172	-0.14075607	0.57184806	0.93388176	0.089313507	0.35896583	0.91578605	0.015240149	0.43724791	1.382986	-0.16971936	0.42606674	1.3728176	0.15289232	0.34873666	1.3977218	-0.016454877	0.41669084	1.0373829	-0.2105578	0.31340452	1.0492555	0.1791988	0.65588402	0.92157845	-0.20067852	0.34304326	0.84212127	0.30263589
328	1.308	0.071735298	0.033056701	-0.089226706	0.79785949	0.038606792	0.054846991	0.065473557	0.16879789	-0.12718772	0.65695141	0.053608092	0.10364815	0.095988547	0.16576431	-0.047165649	0.67019998	0.079800934	0.018043075	0.024081428	0.21663983	-0.077574674	0.60402019	0.029734914	0.062136273	0.36405706	0.40334076	-0.15180634	0.66630909	0.45426466	0.12360772	0.3863147	0.36171106	-0.036423502	0.65646519	0.46024363	-0.0049369036	0.44574759	0.77362861	-0.18701743	0.54169242	0.85340322	0.18489839	0.52177994	0.88595649	-0.14025948	0.57763045	0.93523521	0.089761135	0.36899133	0.91564549	0.014081465	0.44300631	1.3839162	-0.16919572	0.4318128	1.373757	0.15341691	0.3543222	1.3986091	-0.01589414	0.42500066	1.0373962	-0.21244088	0.32015124	1.0498778	0.17973849	0.65924797	0.92079764	-0.20048937	0.35035257	0.8427433	0.30305908
329	1.312	0.077137849	0.035588661	-0.089407788	0.79781023	0.038598101	0.054848631	0.07509375	0.1718939	-0.12734936	0.65691234	0.053568049	0.10377039	0.10536139	0.16844944	-0.047115904	0.67008759	0.079871453	0.018245403	0.035289822	0.22092159	-0.077827917	0.60397083	0.029701553	0.062270208	0.37737033	0.40308189	-0.15231698	0.66885919	0.45452756	0.123895	0.39831705	0.36101184	-0.036763232	0.65785654	0.46015577	-0.0045184169	0.45224812	0.77354272	-0.18625466	0.54768021	0.85500611	0.18540065	0.52725791	0.88669614	-0.13984777	0.58336896	0.93653448	0.090187576	0.37454046	0.91683947	0.014981899	0.44870924	1.3848812	-0.16871087	0.43756795	1.3747202	0.153923	0.35984412	1.399602	-0.015252295	0.43135519	1.0380394	-0.21308607	0.32677565	1.0505272	0.180396	0.66251975	0.91997353	-0.20034145	0.35770829	0.84339232	0.30347754
